<?xml version="1.0" encoding="UTF-8" standalone="no"?>
<svg
   xmlns:dc="http://purl.org/dc/elements/1.1/"
   xmlns:cc="http://creativecommons.org/ns#"
   xmlns:rdf="http://www.w3.org/1999/02/22-rdf-syntax-ns#"
   xmlns:svg="http://www.w3.org/2000/svg"
   xmlns="http://www.w3.org/2000/svg"
   xmlns:sodipodi="http://sodipodi.sourceforge.net/DTD/sodipodi-0.dtd"
   xmlns:inkscape="http://www.inkscape.org/namespaces/inkscape"
   width="90.196457mm"
   height="21.281425mm"
   viewBox="0 0 90.196457 21.281425"
   version="1.1"
   id="svg1013"
   inkscape:version="1.0.2 (e86c870879, 2021-01-15)"
   sodipodi:docname="uoc-logo.svg">
  <defs
     id="defs1007" />
  <sodipodi:namedview
     id="base"
     pagecolor="#ffffff"
     bordercolor="#666666"
     borderopacity="1.0"
     inkscape:pageopacity="0.0"
     inkscape:pageshadow="2"
     inkscape:zoom="0.35"
     inkscape:cx="293.30715"
     inkscape:cy="388.78828"
     inkscape:document-units="mm"
     inkscape:current-layer="layer1"
     inkscape:document-rotation="0"
     showgrid="false"
     fit-margin-top="0"
     fit-margin-left="0"
     fit-margin-right="0"
     fit-margin-bottom="0"
     inkscape:window-width="1533"
     inkscape:window-height="991"
     inkscape:window-x="26"
     inkscape:window-y="23"
     inkscape:window-maximized="0" />
  <metadata
     id="metadata1010">
    <rdf:RDF>
      <cc:Work
         rdf:about="">
        <dc:format>image/svg+xml</dc:format>
        <dc:type
           rdf:resource="http://purl.org/dc/dcmitype/StillImage" />
        <dc:title></dc:title>
      </cc:Work>
    </rdf:RDF>
  </metadata>
  <g
     inkscape:label="Capa 1"
     inkscape:groupmode="layer"
     id="layer1"
     transform="translate(-28.229149,-45.299767)">
    <g
       id="g981"
       transform="matrix(0.35277777,0,0,-0.35277777,-149.42268,230.89026)">
      <path
         d="m 591.367,522.305 h 167.888 v 3.778 H 591.367 Z"
         style="fill:#73edff;fill-opacity:1;fill-rule:nonzero;stroke:none"
         id="path864" />
      <path
         d="m 503.58,465.759 h 80.237 v 60.324 H 503.58 Z"
         style="fill:#73edff;fill-opacity:1;fill-rule:nonzero;stroke:none"
         id="path866" />
      <g
         id="g868"
         transform="translate(555.859,498.6789)">
        <path
           d="m 0,0 v 8.427 c 0,4.646 -1.728,6.428 -5.186,6.428 -3.457,0 -5.186,-1.782 -5.186,-6.427 v -8.429 c 0,-4.644 1.729,-6.427 5.186,-6.427 C -1.728,-6.428 0,-4.645 0,0 M 8.319,7.996 V 0.433 c 0,-9.183 -4.862,-14.262 -13.505,-14.262 -8.643,0 -13.504,5.079 -13.504,14.262 v 7.563 c 0,9.183 4.861,14.26 13.504,14.26 8.643,0 13.505,-5.078 13.505,-14.26"
           style="fill:#000078;fill-opacity:1;fill-rule:nonzero;stroke:none"
           id="path870" />
      </g>
      <g
         id="g872"
         transform="translate(515.948,526.0833)">
        <path
           d="m 0,0 v -15.866 c 0,-4.644 1.728,-6.426 5.186,-6.426 3.457,0 5.185,1.782 5.185,6.427 V -0.001 L 18.691,0 v -15.432 c 0,-9.183 -4.862,-14.262 -13.505,-14.262 -8.643,0 -13.505,5.078 -13.505,14.262 V 0 Z"
           style="fill:#000078;fill-opacity:1;fill-rule:nonzero;stroke:none"
           id="path874" />
      </g>
      <g
         id="g876"
         transform="translate(583.779,481.8568)">
        <path
           d="m 0,0 c -0.854,-0.793 -2.044,-1.145 -3.576,-1.145 -3.457,0 -5.185,1.782 -5.185,6.427 v 8.429 c 0,4.644 1.728,6.427 5.185,6.427 1.532,0 2.722,-0.352 3.576,-1.146 v 8.215 c -1.108,0.219 -2.3,0.332 -3.576,0.332 -8.642,0 -13.504,-5.077 -13.504,-14.261 V 5.716 c 0,-9.184 4.862,-14.262 13.504,-14.262 1.276,0 2.468,0.114 3.576,0.332 z"
           style="fill:#000078;fill-opacity:1;fill-rule:nonzero;stroke:none"
           id="path878" />
      </g>
      <path
         d="m 591.37,465.758 h 167.885 v 3.778 H 591.37 Z"
         style="fill:#73edff;fill-opacity:1;fill-rule:nonzero;stroke:none"
         id="path880" />
      <g
         id="g882"
         transform="translate(694.134,485.7938)">
        <path
           d="M 0,0 C 1.114,0 2.045,0.648 2.632,1.822 2.693,0.688 3.28,0.02 4.212,0.02 c 0.385,0 0.85,0.101 1.498,0.304 l 0.183,0.06 V 0.688 L 5.062,0.911 C 4.577,1.032 4.394,1.296 4.394,1.802 v 4.88 c 0,2.369 -1.195,3.564 -3.604,3.564 -1.013,0 -2.268,-0.324 -3.058,-0.79 V 7.29 h 0.263 c 0.608,1.437 1.539,2.267 2.633,2.267 1.316,0 1.883,-0.749 1.883,-2.369 V 5.913 L 1.418,5.67 C -1.6,5.022 -2.734,4.151 -2.734,2.511 -2.734,0.951 -1.681,0 0,0 m 0.709,0.951 c -0.993,0 -1.559,0.628 -1.559,1.762 0,1.276 0.769,2.066 2.531,2.471 l 0.83,0.202 V 3.422 C 2.511,2.065 1.701,0.951 0.709,0.951 M -11.846,-3.99 c 2.106,0.102 3.301,1.236 4.333,4.071 l 2.957,8.181 c 0.162,0.445 0.425,0.789 0.749,1.073 l 0.162,0.141 V 9.882 H -6.703 V 9.436 L -6.034,9.234 C -5.69,9.132 -5.589,8.991 -5.589,8.768 -5.589,8.626 -5.609,8.363 -5.69,8.1 l -1.6,-5.63 -2.795,5.832 c -0.06,0.142 -0.121,0.344 -0.121,0.466 0,0.223 0.081,0.344 0.446,0.445 l 0.87,0.223 v 0.446 h -4.171 V 9.476 c 0.324,-0.283 0.567,-0.587 0.81,-1.073 l 3.969,-8.16 c -0.304,-1.479 -1.64,-2.613 -3.564,-2.694 z m -12.009,4.233 h 4.779 v 0.405 l -0.87,0.263 c -0.405,0.121 -0.547,0.304 -0.547,0.79 V 7.33 c 0.709,0.992 1.559,1.499 2.47,1.499 1.195,0 1.62,-0.689 1.62,-2.41 V 1.701 c 0,-0.466 -0.121,-0.669 -0.546,-0.79 L -17.82,0.648 V 0.243 h 4.84 v 0.405 l -0.993,0.303 c -0.425,0.122 -0.546,0.324 -0.546,0.79 v 5.002 c 0,2.288 -0.912,3.503 -2.734,3.503 -1.175,0 -2.329,-0.81 -3.301,-2.41 v 2.126 h -0.891 L -23.328,9.456 V 9.153 l 0.506,-0.446 c 0.365,-0.304 0.446,-0.506 0.446,-1.093 V 1.741 c 0,-0.466 -0.122,-0.648 -0.547,-0.79 L -23.855,0.648 Z M -31.165,0 c 1.155,0 2.268,0.789 3.281,2.369 V 0.081 h 0.425 l 2.957,0.384 V 0.85 l -0.993,0.304 c -0.526,0.162 -0.627,0.344 -0.627,0.891 v 7.917 h -0.952 L -29.18,9.74 V 9.456 l 0.688,-0.405 c 0.385,-0.222 0.486,-0.405 0.486,-0.931 V 2.916 c -0.749,-1.033 -1.498,-1.479 -2.349,-1.479 -1.174,0 -1.62,0.669 -1.62,2.451 v 6.074 h -0.951 L -34.81,9.659 V 9.355 l 0.507,-0.445 c 0.384,-0.324 0.445,-0.527 0.445,-1.094 V 3.26 c 0,-2.187 0.891,-3.26 2.693,-3.26 m -9.497,0.243 h 4.982 v 0.405 l -1.073,0.303 c -0.426,0.122 -0.547,0.324 -0.547,0.79 v 12.798 h -0.952 l -2.45,-0.344 V 13.79 l 0.992,-0.425 c 0.385,-0.203 0.527,-0.385 0.527,-0.912 V 1.741 c 0,-0.466 -0.122,-0.648 -0.547,-0.79 L -40.662,0.648 Z M -47.02,0 c 1.114,0 2.045,0.648 2.632,1.822 0.061,-1.134 0.648,-1.802 1.58,-1.802 0.385,0 0.85,0.101 1.498,0.304 l 0.183,0.06 v 0.304 l -0.831,0.223 c -0.486,0.121 -0.668,0.385 -0.668,0.891 v 4.88 c 0,2.369 -1.195,3.564 -3.604,3.564 -1.013,0 -2.268,-0.324 -3.058,-0.79 V 7.29 h 0.263 c 0.608,1.437 1.539,2.267 2.633,2.267 1.316,0 1.883,-0.749 1.883,-2.369 V 5.913 L -45.603,5.67 C -48.62,5.022 -49.754,4.151 -49.754,2.511 -49.754,0.951 -48.701,0 -47.02,0 m 0.709,0.951 c -0.993,0 -1.56,0.628 -1.56,1.762 0,1.276 0.77,2.066 2.532,2.471 l 0.83,0.202 V 3.422 c 0,-1.357 -0.81,-2.471 -1.802,-2.471 M -53.155,0 c 0.891,0 1.741,0.445 2.288,1.113 v 0.365 c -0.425,-0.243 -0.749,-0.344 -1.296,-0.344 -1.175,0 -1.742,0.506 -1.742,1.802 v 6.217 h 2.754 v 0.729 h -2.754 v 2.288 h -1.417 l -0.263,-1.337 c -0.122,-0.668 -0.243,-0.81 -0.77,-1.012 L -56.942,9.598 V 9.153 h 1.154 V 2.733 C -55.788,0.931 -54.877,0 -53.155,0 m -10.47,0 c 1.114,0 2.046,0.648 2.633,1.822 0.061,-1.134 0.648,-1.802 1.579,-1.802 0.385,0 0.851,0.101 1.499,0.304 l 0.182,0.06 v 0.304 l -0.83,0.223 c -0.486,0.121 -0.668,0.385 -0.668,0.891 v 4.88 c 0,2.369 -1.195,3.564 -3.605,3.564 -1.012,0 -2.268,-0.324 -3.058,-0.79 V 7.29 h 0.264 c 0.607,1.437 1.539,2.267 2.632,2.267 1.316,0 1.883,-0.749 1.883,-2.369 V 5.913 L -62.207,5.67 c -3.017,-0.648 -4.151,-1.519 -4.151,-3.159 0,-1.56 1.053,-2.511 2.733,-2.511 m 0.709,0.951 c -0.992,0 -1.559,0.628 -1.559,1.762 0,1.276 0.769,2.066 2.531,2.471 l 0.83,0.202 V 3.422 c 0,-1.357 -0.81,-2.471 -1.802,-2.471 m -9.335,-0.972 c 1.721,0 3.119,0.304 4.03,0.81 v 3.362 h -0.324 l -0.243,-0.689 c -0.628,-1.761 -1.843,-2.835 -3.281,-2.835 -2.227,0 -3.462,2.208 -3.462,6.136 0,4.05 1.174,6.176 3.442,6.176 1.276,0 2.349,-0.911 3.119,-2.551 l 0.324,-0.689 h 0.324 v 3.2 c -0.952,0.425 -2.329,0.688 -3.706,0.688 -3.463,0 -5.873,-2.815 -5.873,-6.824 0,-4.171 2.167,-6.784 5.65,-6.784 m -16.686,6.156 c 0.122,2.086 1.053,3.544 2.268,3.544 1.074,0 1.701,-0.931 1.701,-2.551 0,-0.547 0,-0.79 -0.02,-0.993 z M -86.426,0 c 1.215,0 2.289,0.506 3.18,1.518 v 0.507 c -0.79,-0.608 -1.641,-0.891 -2.673,-0.891 -1.965,0 -3.058,1.599 -3.058,4.414 h 5.832 c 0.02,0.122 0.04,0.527 0.04,0.79 0,2.511 -1.235,3.908 -3.442,3.908 -2.592,0 -4.394,-2.065 -4.394,-5.062 0,-3.281 1.66,-5.184 4.515,-5.184 m -11.562,0 c 1.114,0 2.086,0.668 2.653,1.863 V 0.081 h 0.425 l 2.956,0.384 V 0.85 l -0.992,0.304 c -0.506,0.162 -0.628,0.324 -0.628,0.911 v 12.474 h -0.951 l -2.511,-0.344 V 13.81 l 1.032,-0.445 c 0.426,-0.183 0.547,-0.385 0.547,-0.892 V 9.922 c -0.648,0.202 -1.195,0.283 -1.863,0.283 -2.693,0 -4.556,-2.105 -4.556,-5.183 0,-3.18 1.438,-5.022 3.888,-5.022 m 0.79,1.255 c -1.742,0 -2.633,1.397 -2.633,4.111 0,2.774 0.81,4.272 2.329,4.272 1.235,0 2.045,-1.052 2.045,-2.632 V 2.308 C -95.781,1.68 -96.49,1.255 -97.198,1.255"
           style="fill:#000078;fill-opacity:1;fill-rule:nonzero;stroke:none"
           id="path884" />
      </g>
      <g
         id="g886"
         transform="translate(739.796,505.5433)">
        <path
           d="M 0,0 C 1.114,0 2.045,0.648 2.633,1.823 2.693,0.689 3.281,0.02 4.212,0.02 c 0.385,0 0.851,0.102 1.499,0.304 L 5.893,0.385 V 0.689 L 5.063,0.911 C 4.577,1.033 4.394,1.296 4.394,1.802 v 4.881 c 0,2.369 -1.194,3.564 -3.604,3.564 -1.013,0 -2.268,-0.324 -3.058,-0.79 V 7.29 h 0.263 c 0.608,1.438 1.539,2.268 2.633,2.268 1.316,0 1.883,-0.749 1.883,-2.369 V 5.913 L 1.418,5.67 C -1.6,5.022 -2.734,4.151 -2.734,2.511 -2.734,0.952 -1.681,0 0,0 m 0.709,0.952 c -0.992,0 -1.559,0.628 -1.559,1.762 0,1.275 0.769,2.065 2.531,2.47 l 0.83,0.203 V 3.422 c 0,-1.356 -0.81,-2.47 -1.802,-2.47 M -6.135,0 c 0.891,0 1.741,0.445 2.288,1.114 V 1.478 C -4.272,1.235 -4.596,1.134 -5.143,1.134 c -1.174,0 -1.741,0.506 -1.741,1.802 v 6.217 h 2.754 v 0.729 h -2.754 v 2.288 h -1.418 l -0.263,-1.336 c -0.122,-0.668 -0.243,-0.81 -0.77,-1.013 L -9.922,9.599 V 9.153 h 1.154 V 2.734 C -8.768,0.932 -7.856,0 -6.135,0 m -11.36,0.243 h 5.386 v 0.446 l -1.478,0.324 c -0.405,0.101 -0.547,0.303 -0.547,0.789 v 4.739 c 0.648,1.215 1.479,1.66 3.22,1.762 v 1.903 c -1.478,-0.142 -2.389,-1.053 -3.28,-3.199 v 2.956 h -0.891 L -16.969,9.457 V 9.153 l 0.507,-0.445 c 0.364,-0.304 0.445,-0.507 0.445,-1.094 V 1.742 c 0,-0.466 -0.121,-0.648 -0.547,-0.79 L -17.495,0.648 Z M -24.4,6.136 c 0.121,2.086 1.053,3.544 2.268,3.544 1.073,0 1.701,-0.932 1.701,-2.552 0,-0.547 0,-0.79 -0.021,-0.992 z M -21.889,0 c 1.215,0 2.288,0.506 3.179,1.519 v 0.506 c -0.79,-0.607 -1.64,-0.891 -2.673,-0.891 -1.964,0 -3.058,1.6 -3.058,4.415 h 5.832 c 0.021,0.121 0.041,0.526 0.041,0.789 0,2.511 -1.236,3.909 -3.443,3.909 -2.592,0 -4.394,-2.066 -4.394,-5.063 0,-3.28 1.661,-5.184 4.516,-5.184 m -14.56,-0.081 h 0.466 l 0.385,0.891 c 0.81,-0.506 1.762,-0.769 2.835,-0.769 2.875,0 4.698,2.045 4.698,5.265 0,3.037 -1.397,4.941 -3.665,4.941 -1.317,0 -2.228,-0.567 -2.835,-1.762 v 6.055 h -0.952 l -2.45,-0.345 v -0.384 l 0.992,-0.426 c 0.405,-0.222 0.526,-0.425 0.526,-0.911 z m 3.807,0.709 c -1.134,0 -1.923,0.972 -1.923,2.572 v 4.698 c 0.587,0.729 1.134,1.032 1.863,1.032 1.599,0 2.511,-1.437 2.511,-3.948 0,-2.673 -0.891,-4.354 -2.451,-4.354 M -44.791,12.94 c 2.085,0 3.341,-2.288 3.341,-6.156 0,-4.05 -1.114,-6.156 -3.26,-6.156 -2.086,0 -3.342,2.288 -3.342,6.156 0,4.05 1.114,6.156 3.261,6.156 m 0.04,-12.96 c 3.362,0 5.69,2.774 5.69,6.804 0,4.09 -2.268,6.804 -5.69,6.804 -3.361,0 -5.69,-2.774 -5.69,-6.804 0,-4.091 2.268,-6.804 5.69,-6.804 M -57.468,0 c 0.891,0 1.742,0.445 2.289,1.114 v 0.364 c -0.426,-0.243 -0.75,-0.344 -1.296,-0.344 -1.175,0 -1.742,0.506 -1.742,1.802 v 6.217 h 2.754 v 0.729 h -2.754 v 2.288 h -1.417 l -0.264,-1.336 c -0.121,-0.668 -0.243,-0.81 -0.769,-1.013 L -61.254,9.599 V 9.153 H -60.1 V 2.734 C -60.1,0.932 -59.189,0 -57.468,0 m -10.469,0 c 1.114,0 2.045,0.648 2.633,1.823 0.06,-1.134 0.648,-1.803 1.579,-1.803 0.385,0 0.851,0.102 1.499,0.304 l 0.182,0.061 v 0.304 l -0.83,0.222 c -0.486,0.122 -0.669,0.385 -0.669,0.891 v 4.881 c 0,2.369 -1.194,3.564 -3.604,3.564 -1.013,0 -2.268,-0.324 -3.058,-0.79 V 7.29 h 0.263 c 0.608,1.438 1.539,2.268 2.633,2.268 1.316,0 1.883,-0.749 1.883,-2.369 V 5.913 L -66.519,5.67 C -69.537,5.022 -70.671,4.151 -70.671,2.511 -70.671,0.952 -69.618,0 -67.937,0 m 0.709,0.952 c -0.992,0 -1.559,0.628 -1.559,1.762 0,1.275 0.769,2.065 2.531,2.47 l 0.83,0.203 V 3.422 c 0,-1.356 -0.81,-2.47 -1.802,-2.47 M -74.072,0 c 0.891,0 1.741,0.445 2.288,1.114 v 0.364 c -0.425,-0.243 -0.749,-0.344 -1.296,-0.344 -1.174,0 -1.741,0.506 -1.741,1.802 v 6.217 h 2.754 v 0.729 h -2.754 v 2.288 h -1.418 l -0.263,-1.336 c -0.122,-0.668 -0.243,-0.81 -0.77,-1.013 L -77.859,9.599 V 9.153 h 1.154 V 2.734 C -76.705,0.932 -75.793,0 -74.072,0 m -9.599,0.243 h 4.982 v 0.405 l -1.073,0.304 c -0.426,0.121 -0.547,0.324 -0.547,0.79 v 8.221 h -0.952 L -83.144,9.457 V 9.153 l 0.506,-0.445 c 0.385,-0.324 0.446,-0.527 0.446,-1.094 V 1.742 c 0,-0.466 -0.122,-0.648 -0.547,-0.79 l -0.932,-0.304 z m 2.268,11.684 c 0.669,0 1.175,0.486 1.175,1.175 0,0.688 -0.506,1.174 -1.175,1.174 -0.668,0 -1.174,-0.486 -1.174,-1.174 0,-0.689 0.506,-1.175 1.174,-1.175 M -88.348,0.02 c 2.207,0 3.625,1.215 3.625,3.098 0,1.276 -0.709,2.188 -2.127,2.633 l -1.174,0.385 c -1.114,0.364 -1.58,0.891 -1.58,1.863 0,1.012 0.648,1.681 1.62,1.681 0.952,0 1.641,-0.527 2.268,-1.701 l 0.223,-0.426 h 0.243 v 2.289 c -0.749,0.263 -1.66,0.405 -2.612,0.405 -2.005,0 -3.422,-1.195 -3.422,-2.856 0,-1.519 0.749,-2.43 2.49,-2.997 l 0.952,-0.303 c 0.992,-0.324 1.438,-0.851 1.438,-1.722 0,-1.134 -0.709,-1.782 -1.904,-1.782 -1.093,0 -1.842,0.648 -2.511,2.046 l -0.162,0.344 h -0.243 V 0.608 c 0.628,-0.345 1.823,-0.588 2.876,-0.588 M -99.06,0.243 h 5.386 v 0.446 l -1.478,0.324 c -0.405,0.101 -0.547,0.303 -0.547,0.789 v 4.739 c 0.648,1.215 1.479,1.66 3.22,1.762 v 1.903 c -1.478,-0.142 -2.389,-1.053 -3.28,-3.199 V 9.963 H -96.65 L -98.533,9.457 V 9.153 l 0.506,-0.445 c 0.364,-0.304 0.445,-0.507 0.445,-1.094 V 1.742 c 0,-0.466 -0.121,-0.648 -0.547,-0.79 L -99.06,0.648 Z m -6.905,5.893 c 0.121,2.086 1.053,3.544 2.268,3.544 1.073,0 1.701,-0.932 1.701,-2.552 0,-0.547 0,-0.79 -0.02,-0.992 z M -103.454,0 c 1.215,0 2.288,0.506 3.179,1.519 v 0.506 c -0.79,-0.607 -1.64,-0.891 -2.673,-0.891 -1.964,0 -3.058,1.6 -3.058,4.415 h 5.832 c 0.021,0.121 0.041,0.526 0.041,0.789 0,2.511 -1.235,3.909 -3.443,3.909 -2.592,0 -4.394,-2.066 -4.394,-5.063 0,-3.28 1.661,-5.184 4.516,-5.184 m -10.166,0.203 h 0.77 l 3.22,7.877 c 0.222,0.526 0.526,0.972 1.012,1.377 v 0.425 h -3.017 V 9.457 l 0.587,-0.142 c 0.344,-0.081 0.527,-0.243 0.527,-0.506 0,-0.162 -0.061,-0.527 -0.162,-0.83 l -1.924,-5.569 -2.248,5.569 c -0.101,0.243 -0.202,0.486 -0.202,0.729 0,0.222 0.121,0.364 0.486,0.486 l 0.83,0.263 v 0.425 h -4.151 V 9.497 c 0.364,-0.303 0.546,-0.526 0.708,-0.911 z m -9.598,0.04 h 4.981 v 0.405 l -1.073,0.304 c -0.425,0.121 -0.547,0.324 -0.547,0.79 v 8.221 h -0.951 l -1.884,-0.506 V 9.153 l 0.507,-0.445 c 0.384,-0.324 0.445,-0.527 0.445,-1.094 V 1.742 c 0,-0.466 -0.121,-0.648 -0.547,-0.79 l -0.931,-0.304 z m 2.268,11.684 c 0.668,0 1.174,0.486 1.174,1.175 0,0.688 -0.506,1.174 -1.174,1.174 -0.668,0 -1.175,-0.486 -1.175,-1.174 0,-0.689 0.507,-1.175 1.175,-1.175 M -134.74,0.243 h 4.779 v 0.405 l -0.871,0.263 c -0.405,0.122 -0.547,0.304 -0.547,0.79 v 5.63 c 0.709,0.992 1.559,1.498 2.471,1.498 1.194,0 1.62,-0.688 1.62,-2.41 V 1.701 c 0,-0.466 -0.122,-0.668 -0.547,-0.79 l -0.871,-0.263 V 0.243 h 4.84 v 0.405 l -0.992,0.304 c -0.426,0.121 -0.547,0.324 -0.547,0.79 v 5.001 c 0,2.289 -0.911,3.504 -2.734,3.504 -1.174,0 -2.329,-0.81 -3.301,-2.41 v 2.126 h -0.891 l -1.883,-0.506 V 9.153 l 0.506,-0.445 c 0.365,-0.304 0.446,-0.507 0.446,-1.094 V 1.742 c 0,-0.466 -0.122,-0.648 -0.547,-0.79 l -0.931,-0.304 z m -6.804,-0.263 c 2.835,0 4.556,1.924 4.556,5.569 v 5.852 c 0,0.729 0.122,0.972 0.608,1.134 l 1.093,0.344 v 0.446 h -4.637 v -0.446 l 1.174,-0.364 c 0.588,-0.183 0.729,-0.426 0.729,-1.215 V 5.123 c 0,-2.916 -1.336,-4.495 -3.341,-4.495 -1.984,0 -2.997,1.6 -2.997,4.657 V 11.3 c 0,0.789 0.142,1.032 0.729,1.215 l 1.175,0.364 v 0.446 h -5.691 v -0.446 l 1.053,-0.344 c 0.486,-0.162 0.608,-0.405 0.608,-1.134 V 5.792 c 0,-3.868 1.741,-5.812 4.941,-5.812"
           style="fill:#000078;fill-opacity:1;fill-rule:nonzero;stroke:none"
           id="path888" />
      </g>
    </g>
  </g>
</svg>
